<svg xmlns="http://www.w3.org/2000/svg" xmlns:xlink="http://www.w3.org/1999/xlink" version="1.1" width="256" height="256" viewBox="0 0 256 256" xml:space="preserve">
<desc>Created with Fabric.js 1.7.22</desc>
<defs>
</defs>
<g transform="translate(128 128) scale(0.72 0.72)" style="">
	<g style="stroke: none; stroke-width: 0; stroke-dasharray: none; stroke-linecap: butt; stroke-linejoin: miter; stroke-miterlimit: 10; fill: none; fill-rule: nonzero; opacity: 1;" transform="translate(-175.05 -175.05) scale(3.89 3.89)" >
	<circle cx="45" cy="45" r="41.25" style="stroke: none; stroke-width: 1; stroke-dasharray: none; stroke-linecap: butt; stroke-linejoin: miter; stroke-miterlimit: 10; fill: rgb(201,212,227); fill-rule: nonzero; opacity: 1;" transform="  matrix(1 0 0 1 0 0) "/>
	<path d="M 57.41 29.579 l -0.767 -1.446 c -0.945 -1.782 -2.786 -2.894 -4.79 -2.894 H 38.147 c -2.004 0 -3.845 1.113 -4.79 2.894 l -0.242 0.456 l -0.525 0.99 c -0.512 0.966 -1.354 1.685 -2.343 2.047 c -0.466 0.171 -0.965 0.262 -1.477 0.262 h -2.54 c -2.577 0 -4.667 2.107 -4.667 4.705 v 21.59 c 0 2.599 2.089 4.705 4.667 4.705 h 37.541 c 0.956 0 1.844 -0.29 2.584 -0.787 c 1.255 -0.843 2.083 -2.284 2.083 -3.919 v -21.59 c 0 -2.599 -2.089 -4.705 -4.667 -4.705 h -2.54 C 59.632 31.887 58.164 31 57.41 29.579 z" style="stroke: none; stroke-width: 1; stroke-dasharray: none; stroke-linecap: butt; stroke-linejoin: miter; stroke-miterlimit: 10; fill: rgb(107,144,238); fill-rule: nonzero; opacity: 1;" transform=" matrix(1 0 0 1 0 0) " stroke-linecap="round" />
	<path d="M 55.546 46.495 c 0 1.396 -0.267 2.729 -0.752 3.95 c -0.535 1.348 -1.336 2.559 -2.337 3.569 c -1.909 1.924 -4.545 3.114 -7.457 3.114 c -5.825 0 -10.546 -4.76 -10.546 -10.633 c 0 -2.936 1.18 -5.594 3.089 -7.518 c 1.001 -1.01 2.203 -1.817 3.54 -2.357 c 1.211 -0.489 2.533 -0.758 3.917 -0.758 C 50.825 35.862 55.546 40.622 55.546 46.495 z" style="stroke: none; stroke-width: 1; stroke-dasharray: none; stroke-linecap: butt; stroke-linejoin: miter; stroke-miterlimit: 10; fill: rgb(204,215,242); fill-rule: nonzero; opacity: 1;" transform=" matrix(1 0 0 1 0 0) " stroke-linecap="round" />
	<ellipse cx="61.452999999999996" cy="37.977000000000004" rx="1.763" ry="1.777" style="stroke: none; stroke-width: 1; stroke-dasharray: none; stroke-linecap: butt; stroke-linejoin: miter; stroke-miterlimit: 10; fill: rgb(158,182,244); fill-rule: nonzero; opacity: 1;" transform=" matrix(1 0 0 1 0 0) "/>
	<path d="M 61.26 63.824 h -35.03 c -3.09 0 -5.604 -2.531 -5.604 -5.642 v -21.59 c 0 -3.111 2.514 -5.643 5.604 -5.643 h 2.54 c 0.396 0 0.784 -0.069 1.155 -0.205 c 0.485 -0.176 1.024 0.073 1.203 0.559 c 0.178 0.486 -0.073 1.024 -0.559 1.203 c -0.578 0.211 -1.183 0.318 -1.799 0.318 h -2.54 c -2.056 0 -3.729 1.69 -3.729 3.768 v 21.59 c 0 2.077 1.673 3.767 3.729 3.767 h 35.03 c 0.518 0 0.938 0.419 0.938 0.938 S 61.778 63.824 61.26 63.824 z" style="stroke: none; stroke-width: 1; stroke-dasharray: none; stroke-linecap: butt; stroke-linejoin: miter; stroke-miterlimit: 10; fill: rgb(25,33,51); fill-rule: nonzero; opacity: 1;" transform=" matrix(1 0 0 1 0 0) " stroke-linecap="round" />
	<path d="M 45 58.065 c -6.332 0 -11.484 -5.19 -11.484 -11.57 c 0 -3.089 1.193 -5.994 3.361 -8.179 c 0.364 -0.368 0.958 -0.371 1.326 -0.005 c 0.368 0.365 0.37 0.958 0.005 1.326 c -1.816 1.832 -2.817 4.267 -2.817 6.859 c 0 5.346 4.311 9.695 9.609 9.695 c 2.565 0 4.977 -1.007 6.792 -2.836 c 0.365 -0.368 0.96 -0.369 1.326 -0.005 c 0.368 0.365 0.37 0.959 0.005 1.326 C 50.954 56.861 48.069 58.065 45 58.065 z" style="stroke: none; stroke-width: 1; stroke-dasharray: none; stroke-linecap: butt; stroke-linejoin: miter; stroke-miterlimit: 10; fill: rgb(25,33,51); fill-rule: nonzero; opacity: 1;" transform=" matrix(1 0 0 1 0 0) " stroke-linecap="round" />
	<path d="M 67.552 61.876 c -0.19 0 -0.381 -0.057 -0.547 -0.176 c -0.42 -0.303 -0.516 -0.888 -0.214 -1.309 c 0.464 -0.645 0.709 -1.408 0.709 -2.209 v -21.59 c 0 -2.078 -1.674 -3.768 -3.73 -3.768 h -2.54 c -1.95 0 -3.731 -1.076 -4.649 -2.807 l -0.766 -1.446 c -0.784 -1.478 -2.302 -2.396 -3.961 -2.396 H 38.147 c -1.309 0 -2.549 0.574 -3.403 1.575 c -0.336 0.392 -0.928 0.44 -1.322 0.104 c -0.394 -0.336 -0.44 -0.928 -0.104 -1.322 c 1.211 -1.419 2.972 -2.233 4.83 -2.233 h 13.707 c 2.356 0 4.509 1.3 5.619 3.393 l 0.766 1.446 c 0.591 1.116 1.739 1.81 2.992 1.81 h 2.54 c 3.091 0 5.605 2.531 5.605 5.643 v 21.59 c 0 1.196 -0.367 2.338 -1.06 3.304 C 68.131 61.74 67.844 61.876 67.552 61.876 z" style="stroke: none; stroke-width: 1; stroke-dasharray: none; stroke-linecap: butt; stroke-linejoin: miter; stroke-miterlimit: 10; fill: rgb(25,33,51); fill-rule: nonzero; opacity: 1;" transform=" matrix(1 0 0 1 0 0) " stroke-linecap="round" />
	<path d="M 55.354 49.472 c -0.059 0 -0.118 -0.005 -0.179 -0.017 c -0.508 -0.098 -0.841 -0.59 -0.742 -1.098 c 0.116 -0.606 0.176 -1.233 0.176 -1.862 c 0 -5.346 -4.31 -9.695 -9.608 -9.695 c -0.646 0 -1.293 0.065 -1.921 0.194 c -0.508 0.102 -1.003 -0.224 -1.106 -0.731 c -0.103 -0.507 0.224 -1.003 0.731 -1.106 c 0.752 -0.153 1.524 -0.231 2.296 -0.231 c 6.332 0 11.483 5.191 11.483 11.57 c 0 0.748 -0.07 1.494 -0.211 2.217 C 56.187 49.161 55.794 49.472 55.354 49.472 z" style="stroke: none; stroke-width: 1; stroke-dasharray: none; stroke-linecap: butt; stroke-linejoin: miter; stroke-miterlimit: 10; fill: rgb(25,33,51); fill-rule: nonzero; opacity: 1;" transform=" matrix(1 0 0 1 0 0) " stroke-linecap="round" />
	<path d="M 89.063 45 C 89.063 20.704 69.296 0.938 45 0.938 c -12.562 0 -23.903 5.292 -31.937 13.754 c -0.083 0.066 -0.17 0.124 -0.247 0.201 c -0.13 0.129 -0.241 0.269 -0.34 0.415 C 5.313 23.146 0.938 33.571 0.938 45 c 0 24.296 19.766 44.063 44.063 44.063 c 11.38 0 21.765 -4.337 29.592 -11.443 c 0.137 -0.095 0.27 -0.198 0.392 -0.319 c 0.075 -0.075 0.133 -0.16 0.198 -0.241 C 83.717 69.018 89.063 57.625 89.063 45 z M 83.438 45 c 0 10.172 -3.979 19.427 -10.453 26.309 L 18.798 16.913 C 25.669 10.499 34.881 6.563 45 6.563 C 66.194 6.563 83.438 23.806 83.438 45 z M 6.563 45 c 0 -9.054 3.154 -17.38 8.411 -23.956 L 68.84 75.118 c -6.558 5.202 -14.839 8.32 -23.84 8.32 C 23.806 83.438 6.563 66.194 6.563 45 z" style="stroke: none; stroke-width: 1; stroke-dasharray: none; stroke-linecap: butt; stroke-linejoin: miter; stroke-miterlimit: 10; fill: rgb(195,29,69); fill-rule: nonzero; opacity: 1;" transform=" matrix(1 0 0 1 0 0) " stroke-linecap="round" />
	<path d="M 45 90 C 20.187 90 0 69.814 0 45 c 0 -11.218 4.169 -21.968 11.74 -30.278 c 0.129 -0.184 0.265 -0.346 0.413 -0.494 c 0.087 -0.086 0.178 -0.158 0.272 -0.229 C 20.983 4.988 32.567 0 45 0 c 24.814 0 45 20.187 45 45 c 0 12.478 -5.015 24.086 -14.123 32.692 c -0.092 0.119 -0.157 0.198 -0.231 0.271 c -0.146 0.147 -0.305 0.275 -0.47 0.391 C 66.883 85.865 56.169 90 45 90 z M 45 1.875 c -11.914 0 -23.015 4.781 -31.257 13.462 l -0.185 0.157 c -0.027 0.021 -0.056 0.039 -0.081 0.064 c -0.086 0.085 -0.159 0.179 -0.226 0.277 l -0.083 0.105 C 5.885 23.91 1.875 34.23 1.875 45 c 0 23.779 19.346 43.125 43.125 43.125 c 10.722 0 21.007 -3.977 28.962 -11.2 l 0.099 -0.079 c 0.091 -0.062 0.179 -0.129 0.26 -0.21 c 0.022 -0.023 0.039 -0.049 0.059 -0.074 l 0.159 -0.186 C 83.3 68.123 88.125 56.981 88.125 45 C 88.125 21.221 68.779 1.875 45 1.875 z M 45 84.375 C 23.289 84.375 5.625 66.712 5.625 45 c 0 -9.004 2.98 -17.491 8.616 -24.542 l 0.656 -0.82 L 70.246 75.2 l -0.823 0.652 C 62.393 81.428 53.948 84.375 45 84.375 z M 15.06 22.459 C 10.111 29.005 7.5 36.776 7.5 45 c 0 20.677 16.822 37.5 37.5 37.5 c 8.17 0 15.901 -2.581 22.425 -7.475 L 15.06 22.459 z M 73.004 72.656 L 17.451 16.889 l 0.708 -0.661 C 25.483 9.391 35.016 5.625 45 5.625 c 21.712 0 39.375 17.664 39.375 39.375 c 0 10.04 -3.802 19.611 -10.707 26.951 L 73.004 72.656 z M 20.155 16.946 l 52.802 53.005 C 79.119 63.061 82.5 54.238 82.5 45 C 82.5 24.322 65.677 7.5 45 7.5 C 35.815 7.5 27.03 10.847 20.155 16.946 z" style="stroke: none; stroke-width: 1; stroke-dasharray: none; stroke-linecap: butt; stroke-linejoin: miter; stroke-miterlimit: 10; fill: rgb(25,33,51); fill-rule: nonzero; opacity: 1;" transform=" matrix(1 0 0 1 0 0) " stroke-linecap="round" />
</g>
</g>
</svg>